HIERARCHY
ROOT Hips
{
	OFFSET 0.000000 0.000000 0.000000
	CHANNELS 6 Xposition Yposition Zposition Zrotation Yrotation Xrotation 
	JOINT LowerBack
	{
		OFFSET 0.000000 0.000000 0.000000
		CHANNELS 3 Zrotation Yrotation Xrotation
		JOINT Spine
		{
			OFFSET 0.028270 2.035590 -0.193380
			CHANNELS 3 Zrotation Yrotation Xrotation
			JOINT Spine1
			{
				OFFSET 0.056720 2.048850 -0.042750
				CHANNELS 3 Zrotation Yrotation Xrotation
				JOINT Neck
				{
					OFFSET 0.000000 0.000000 0.000000
					CHANNELS 3 Zrotation Yrotation Xrotation
					JOINT Neck1
					{
						OFFSET -0.054170 1.746240 0.172020
						CHANNELS 3 Zrotation Yrotation Xrotation
						JOINT Head
						{
							OFFSET 0.104070 1.761360 -0.123970
							CHANNELS 3 Zrotation Yrotation Xrotation
							End Site
							{
								OFFSET 0.000000 0.000000 0.000000
							}
						}
					}
				}
				JOINT LeftShoulder
				{
					OFFSET 0.000000 0.000000 0.000000
					CHANNELS 3 Zrotation Yrotation Xrotation
					JOINT LeftArm
					{
						OFFSET 3.362410 1.200890 -0.311210
						CHANNELS 3 Zrotation Yrotation Xrotation
						JOINT LeftForeArm
						{
							OFFSET 4.983000 -0.000000 -0.000000
							CHANNELS 3 Zrotation Yrotation Xrotation
							JOINT LeftHand
							{
								OFFSET 3.483560 -0.000000 -0.000000
								CHANNELS 3 Zrotation Yrotation Xrotation
								JOINT LeftFingerBase
								{
									OFFSET 0.000000 0.000000 0.000000
									CHANNELS 3 Zrotation Yrotation Xrotation
									JOINT LeftHandIndex1
									{
										OFFSET 0.715260 -0.000000 -0.000000
										CHANNELS 3 Zrotation Yrotation Xrotation
										End Site
										{
											OFFSET 0.000000 0.000000 0.000000
										}
									}
								}
								JOINT LThumb
								{
									OFFSET 0.000000 0.000000 0.000000
									CHANNELS 3 Zrotation Yrotation Xrotation
									End Site
									{
										OFFSET 0.000000 0.000000 0.000000
									}
								}
							}
						}
					}
				}
				JOINT RightShoulder
				{
					OFFSET 0.000000 0.000000 0.000000
					CHANNELS 3 Zrotation Yrotation Xrotation
					JOINT RightArm
					{
						OFFSET -3.136600 1.374050 -0.404650
						CHANNELS 3 Zrotation Yrotation Xrotation
						JOINT RightForeArm
						{
							OFFSET -5.241900 -0.000000 -0.000000
							CHANNELS 3 Zrotation Yrotation Xrotation
							JOINT RightHand
							{
								OFFSET -3.444170 -0.000000 -0.000000
								CHANNELS 3 Zrotation Yrotation Xrotation
								JOINT RightFingerBase
								{
									OFFSET 0.000000 0.000000 0.000000
									CHANNELS 3 Zrotation Yrotation Xrotation
									JOINT RightHandIndex1
									{
										OFFSET -0.622530 -0.000000 -0.000000
										CHANNELS 3 Zrotation Yrotation Xrotation
										End Site
										{
											OFFSET 0.000000 0.000000 0.000000
										}
									}
								}
								JOINT RThumb
								{
									OFFSET 0.000000 0.000000 0.000000
									CHANNELS 3 Zrotation Yrotation Xrotation
									End Site
									{
										OFFSET 0.000000 0.000000 0.000000
									}
								}
							}
						}
					}
				}
			}
		}
	}
}
}
MOTION
Frames: 18
Frame Time: 0.008333
6.441802 16.807560 -6.491221 -174.222824 36.407895 -175.305005 -4.707023 0.478213 -2.126663 -1.556263 0.708804 -2.767058 -5.038048 0.667729 2.505929 9.910142 -13.331992 -9.557927 -1.169388 -0.066821 -0.490214 0.000000 0.000000 0.000000 -1.495167 24.290015 1.203154 -69.867708 26.846276 -17.489042 -4.761503 -6.595562 -0.014177 1.219888 5.481702 0.066880 -0.162202 -0.082888 0.000000 0.000000 0.000000 0.000000 0.000000 0.000000 0.000000 8.577883 -8.088492 0.027802 40.435832 13.032913 4.524247 1.176564 55.455212 0.012607 3.590686 3.760814 0.124262 0.000629 -0.186386 -0.000000 0.000000 0.000000 0.000000 0.000000 0.000000 0.000000 
6.495852 16.801222 -6.626871 -174.334610 35.925945 -175.507497 -4.837003 0.361142 -1.981123 -1.584625 0.603017 -2.747757 -5.073359 0.564219 2.472723 9.998163 -13.419020 -9.601101 -1.206155 -0.068982 -0.503039 0.000000 0.000000 0.000000 -1.464970 24.032344 1.232551 -69.904395 26.076046 -17.384057 -4.722141 -6.579112 -0.013367 1.430282 5.348738 0.075193 -0.160252 -0.079873 0.000000 0.000000 0.000000 0.000000 0.000000 0.000000 0.000000 8.788403 -8.163190 -0.011841 40.986810 12.761034 4.730406 1.161713 56.100304 0.012514 3.518226 3.831677 0.123969 0.000774 -0.188322 -0.000000 0.000000 0.000000 0.000000 0.000000 0.000000 0.000000 
6.546224 16.795966 -6.761073 -174.434141 35.419811 -175.698272 -4.931598 0.243843 -1.825546 -1.605959 0.494859 -2.725889 -5.109803 0.458589 2.442179 10.082712 -13.512946 -9.639770 -1.246952 -0.071522 -0.514622 0.000000 0.000000 0.000000 -1.428199 23.737163 1.261015 -69.976740 25.213295 -17.199383 -4.676258 -6.584715 -0.012476 1.674182 5.201624 0.084207 -0.157993 -0.076709 0.000000 0.000000 0.000000 0.000000 0.000000 0.000000 0.000000 9.009923 -8.249928 -0.049373 41.567358 12.475771 4.918381 1.151224 56.697395 0.012448 3.453983 3.916881 0.124378 0.001039 -0.190118 -0.000000 0.000000 0.000000 0.000000 0.000000 0.000000 0.000000 
6.592986 16.792171 -6.894061 -174.516963 34.903397 -175.871067 -4.986923 0.129903 -1.668742 -1.619901 0.387505 -2.703124 -5.148203 0.353893 2.414566 10.162982 -13.609072 -9.670158 -1.291624 -0.074494 -0.523881 0.000000 0.000000 0.000000 -1.390621 23.412260 1.286096 -70.076095 24.268287 -16.926500 -4.625349 -6.632086 -0.011560 1.931820 5.048596 0.093124 -0.155397 -0.073456 0.000000 0.000000 0.000000 0.000000 0.000000 0.000000 0.000000 9.239585 -8.343523 -0.085462 42.183092 12.175687 5.085934 1.145674 57.231558 0.012412 3.400952 4.015205 0.125387 0.001417 -0.191693 -0.000000 0.000000 0.000000 0.000000 0.000000 0.000000 0.000000 
6.636338 16.790194 -7.025967 -174.581629 34.389417 -176.021556 -5.000598 0.022260 -1.519318 -1.626286 0.283616 -2.681367 -5.189153 0.252640 2.389176 10.236584 -13.699162 -9.687797 -1.340068 -0.077966 -0.529536 0.000000 0.000000 0.000000 -1.359593 23.063560 1.305733 -70.193195 23.255977 -16.550182 -4.571063 -6.746210 -0.010676 2.181123 4.900071 0.101141 -0.152440 -0.070199 0.000000 0.000000 0.000000 0.000000 0.000000 0.000000 0.000000 9.471888 -8.434978 -0.121024 42.843308 11.853866 5.228363 1.145553 57.690520 0.012413 3.363204 4.122151 0.127198 0.001882 -0.192946 -0.000000 0.000000 0.000000 0.000000 0.000000 0.000000 0.000000 
6.676506 16.790336 -7.156933 -174.626569 33.888971 -176.145355 -4.971885 -0.077251 -1.384905 -1.625133 0.184878 -2.661800 -5.232903 0.156429 2.367146 10.302483 -13.782715 -9.690767 -1.391858 -0.081936 -0.531028 0.000000 0.000000 0.000000 -1.339541 22.702007 1.317831 -70.318897 22.182483 -16.070876 -4.515122 -6.940453 -0.009860 2.401364 4.760236 0.107360 -0.149151 -0.066943 0.000000 0.000000 0.000000 0.000000 0.000000 0.000000 0.000000 9.704854 -8.524292 -0.157131 43.551528 11.517177 5.349779 1.151150 58.057400 0.012445 3.336508 4.233705 0.129410 0.002500 -0.193790 -0.000000 0.000000 0.000000 0.000000 0.000000 0.000000 0.000000 
6.713781 16.792818 -7.287003 -174.654187 33.409901 -176.242046 -4.902839 -0.167615 -1.271002 -1.616938 0.092355 -2.645809 -5.279542 0.066208 2.347252 10.357514 -13.852526 -9.675566 -1.446699 -0.086437 -0.527371 0.000000 0.000000 0.000000 -1.335151 22.331091 1.321215 -70.444607 21.064685 -15.475050 -4.459054 -7.240213 -0.009149 2.573906 4.636236 0.111482 -0.145568 -0.063748 0.000000 0.000000 0.000000 0.000000 0.000000 0.000000 0.000000 9.932112 -8.604052 -0.194834 44.317133 11.158592 5.445902 1.162645 58.322840 0.012497 3.320577 4.341768 0.131923 0.003284 -0.194126 -0.000000 0.000000 0.000000 0.000000 0.000000 0.000000 0.000000 
6.748487 16.797748 -7.416157 -174.668077 32.956134 -176.312834 -4.797256 -0.248903 -1.180752 -1.602389 0.006158 -2.634002 -5.328744 -0.017960 2.329291 10.399607 -13.907217 -9.641076 -1.503998 -0.091432 -0.518261 0.000000 0.000000 0.000000 -1.348158 21.956066 1.315101 -70.563183 19.913816 -14.759179 -4.403979 -7.663137 -0.008556 2.686575 4.530161 0.113304 -0.141767 -0.060620 0.000000 0.000000 0.000000 0.000000 0.000000 0.000000 0.000000 10.149695 -8.673426 -0.234977 45.144867 10.779398 5.516981 1.180109 58.476735 0.012562 3.310672 4.439016 0.134337 0.004293 -0.193876 -0.000000 0.000000 0.000000 0.000000 0.000000 0.000000 0.000000 
6.780928 16.805105 -7.544401 -174.670537 32.528175 -176.358749 -4.658213 -0.321552 -1.115721 -1.582000 -0.074018 -2.626987 -5.380308 -0.096432 2.311728 10.426062 -13.942004 -9.585823 -1.563396 -0.096911 -0.503312 0.000000 0.000000 0.000000 -1.378634 21.577126 1.299528 -70.667882 18.745329 -13.915556 -4.350416 -8.229287 -0.008081 2.734577 4.442101 0.112828 -0.137841 -0.057571 0.000000 0.000000 0.000000 0.000000 0.000000 0.000000 0.000000 10.352462 -8.727616 -0.278121 46.039774 10.371044 5.556721 1.203415 58.516874 0.012622 3.304313 4.517207 0.136252 0.005545 -0.192981 -0.000000 0.000000 0.000000 0.000000 0.000000 0.000000 0.000000 
6.811446 16.814837 -7.671678 -174.665365 32.122123 -176.383553 -4.490577 -0.387005 -1.074787 -1.556544 -0.149335 -2.624518 -5.433711 -0.170346 2.294149 10.436018 -13.958669 -9.510971 -1.624322 -0.102798 -0.482888 0.000000 0.000000 0.000000 -1.423772 21.196038 1.274759 -70.753479 17.567461 -12.949288 -4.298270 -8.949007 -0.007701 2.721691 4.365500 0.110154 -0.133904 -0.054558 0.000000 0.000000 0.000000 0.000000 0.000000 0.000000 0.000000 10.539034 -8.769110 -0.324387 47.000787 9.934575 5.564292 1.232389 58.440846 0.012665 3.296148 4.570967 0.137368 0.007089 -0.191418 -0.000000 0.000000 0.000000 0.000000 0.000000 0.000000 0.000000 
6.840298 16.826710 -7.797931 -174.655141 31.731303 -176.391168 -4.298730 -0.446928 -1.054864 -1.526708 -0.221189 -2.626032 -5.488530 -0.241046 2.275842 10.429296 -13.958526 -9.418311 -1.686343 -0.109019 -0.457545 0.000000 0.000000 0.000000 -1.478766 20.812719 1.241574 -70.815940 16.387522 -11.868324 -4.246760 -9.828883 -0.007382 2.660102 4.290716 0.105783 -0.130075 -0.051525 0.000000 0.000000 0.000000 0.000000 0.000000 0.000000 0.000000 10.709116 -8.799688 -0.373435 48.023834 9.467466 5.535676 1.266750 58.251581 0.012678 3.283190 4.595699 0.137485 0.008934 -0.189181 -0.000000 0.000000 0.000000 0.000000 0.000000 0.000000 0.000000 
6.867751 16.840439 -7.923094 -174.643728 31.346541 -176.387467 -4.088585 -0.503670 -1.050845 -1.493404 -0.291499 -2.630168 -5.543978 -0.310336 2.257585 10.407947 -13.953118 -9.312634 -1.748653 -0.115424 -0.428665 0.000000 0.000000 0.000000 -1.537870 20.428007 1.200373 -70.852723 15.207667 -10.690618 -4.194692 -10.868859 -0.007083 2.568091 4.204832 0.100115 -0.126469 -0.048389 0.000000 0.000000 0.000000 0.000000 0.000000 0.000000 0.000000 10.866686 -8.832324 -0.424231 49.098330 8.983052 5.477880 1.306407 57.948866 0.012645 3.258513 4.592457 0.136202 0.011156 -0.186318 -0.000000 0.000000 0.000000 0.000000 0.000000 0.000000 0.000000 
6.894013 16.855699 -8.047161 -174.631096 30.957818 -176.374880 -3.862219 -0.558881 -1.059666 -1.456942 -0.361784 -2.636496 -5.600013 -0.379693 2.238223 10.373371 -13.940143 -9.196409 -1.811333 -0.121975 -0.396983 0.000000 0.000000 0.000000 -1.593781 20.040474 1.152702 -70.862243 14.030912 -9.432393 -4.140399 -12.064102 -0.006757 2.469259 4.093945 0.093751 -0.123181 -0.045056 0.000000 0.000000 0.000000 0.000000 0.000000 0.000000 0.000000 11.013780 -8.864174 -0.475779 50.215362 8.470528 5.381078 1.350934 57.546301 0.012576 3.227607 4.560608 0.133818 0.013642 -0.182862 -0.000000 0.000000 0.000000 0.000000 0.000000 0.000000 0.000000 
6.919273 16.872147 -8.170149 -174.618387 30.555066 -176.356481 -3.623845 -0.614874 -1.077057 -1.417967 -0.434030 -2.643727 -5.656186 -0.450980 2.218968 10.330138 -13.933181 -9.075757 -1.873904 -0.128536 -0.364216 0.000000 0.000000 0.000000 -1.640534 19.649988 1.098917 -70.843980 12.856758 -8.119054 -4.082271 -13.406743 -0.006375 2.387622 3.945760 0.087391 -0.120296 -0.041424 0.000000 0.000000 0.000000 0.000000 0.000000 0.000000 0.000000 11.158566 -8.909963 -0.526152 51.357458 7.946137 5.255484 1.400432 57.047445 0.012468 3.188691 4.506078 0.130434 0.016416 -0.178887 -0.000000 0.000000 0.000000 0.000000 0.000000 0.000000 0.000000 
6.943673 16.889452 -8.292075 -174.605138 30.129886 -176.332522 -3.376003 -0.673538 -1.100851 -1.376848 -0.509939 -2.651164 -5.712416 -0.525810 2.200295 10.283273 -13.947158 -8.956116 -1.936301 -0.135024 -0.331838 0.000000 0.000000 0.000000 -1.676117 19.249176 1.038835 -70.797064 11.693149 -6.781786 -4.018738 -14.894510 -0.005911 2.345222 3.751057 0.081637 -0.117870 -0.037411 0.000000 0.000000 0.000000 0.000000 0.000000 0.000000 0.000000 11.310537 -8.985547 -0.572540 52.506040 7.428914 5.113850 1.455572 56.454999 0.012339 3.145167 4.436398 0.126550 0.019480 -0.174461 -0.000000 0.000000 0.000000 0.000000 0.000000 0.000000 0.000000 
6.967377 16.907151 -8.413020 -174.590416 29.672961 -176.303152 -3.120453 -0.736413 -1.130263 -1.333891 -0.590961 -2.658724 -5.768763 -0.605650 2.182179 10.234700 -13.960342 -8.838854 -1.998881 -0.141443 -0.300311 0.000000 0.000000 0.000000 -1.682356 18.856328 0.976057 -70.728132 10.516771 -5.421537 -3.948791 -16.489500 -0.005360 2.361875 3.501352 0.076688 -0.115986 -0.032802 -0.000000 0.000000 0.000000 0.000000 0.000000 0.000000 0.000000 11.468749 -9.066716 -0.616511 53.654377 6.881699 4.932417 1.514484 55.799661 0.012203 3.111301 4.352514 0.122662 0.022499 -0.169638 -0.000000 0.000000 0.000000 0.000000 0.000000 0.000000 0.000000 
6.990600 16.925112 -8.533089 -174.574020 29.180919 -176.264859 -2.860338 -0.805372 -1.166435 -1.289543 -0.678780 -2.666147 -5.825383 -0.692070 2.165540 10.192654 -14.012060 -8.731209 -2.061559 -0.147701 -0.271451 0.000000 0.000000 0.000000 -1.671473 18.445082 0.907267 -70.630641 9.362550 -4.082235 -3.871287 -18.217055 -0.004734 2.447490 3.200717 0.072445 -0.114639 -0.027627 0.000000 0.000000 0.000000 0.000000 0.000000 0.000000 0.000000 11.650613 -9.195775 -0.652237 54.776846 6.365775 4.753664 1.580126 55.061557 0.012089 3.088688 4.267965 0.119274 0.025672 -0.164483 -0.000000 0.000000 0.000000 0.000000 0.000000 0.000000 0.000000 
7.013455 16.942860 -8.652306 -174.555033 28.649144 -176.216333 -2.598238 -0.881779 -1.210594 -1.244228 -0.774642 -2.673558 -5.882246 -0.786364 2.151406 10.158902 -14.071774 -8.633227 -2.124653 -0.153816 -0.245373 0.000000 0.000000 0.000000 -1.622135 18.046078 0.836436 -70.515429 8.194102 -2.757187 -3.786732 -20.022385 -0.004058 2.609266 2.844232 0.068407 -0.113930 -0.021603 -0.000000 0.000000 0.000000 0.000000 0.000000 0.000000 0.000000 11.853087 -9.339346 -0.683179 55.869973 5.837934 4.553208 1.650031 54.272105 0.011999 3.090668 4.183210 0.116782 0.028639 -0.159034 -0.000000 0.000000 0.000000 0.000000 0.000000 0.000000 0.000000 
